<?xml version="1.0" encoding="utf-8"?>
<!-- Generator: Adobe Illustrator 27.0.1, SVG Export Plug-In . SVG Version: 6.00 Build 0)  -->
<svg version="1.1" id="Warstwa_1" xmlns="http://www.w3.org/2000/svg" xmlns:xlink="http://www.w3.org/1999/xlink" x="0px" y="0px"
	 viewBox="0 0 378.6 97.7" style="enable-background:new 0 0 378.6 97.7;" xml:space="preserve">
<style type="text/css">
	.st0{fill:#004C92;}
</style>
<g>
	<path class="st0" d="M35.8,15.8h-22v5h1.7c2.8,0,4.1,0.8,4.1,2.8c0,1.3-0.2,2.1-1.2,5.1L2.6,76.1h13.9l4.4-14.6h18l4.2,14.6H58
		L42.3,20.6C41.2,17,39.7,15.8,35.8,15.8z M23.1,51.8l7.3-24l6.4,24H23.1z"/>
	<path class="st0" d="M71.8,15.7H58.4v5h0.7c2.6,0,3.8,1.1,3.8,3.5v51.9h13.4V20.2C76.3,17.3,74.8,15.7,71.8,15.7z"/>
	<path class="st0" d="M96.1,15.7H82.6v5h0.8c2.6,0,3.8,1.1,3.8,3.5v51.9h13.4V20.2C100.6,17.3,99.1,15.7,96.1,15.7z"/>
	<path class="st0" d="M120.9,30.9h-13.6v4.9h0.7c2.6,0,3.8,1.1,3.8,3.5v36.8h13.3V35.4C125.1,32.6,123.6,30.9,120.9,30.9z"/>
	<path class="st0" d="M117.6,14.7c-5,0-7.9,2.4-7.9,6.4c0,4.1,2.9,6.5,7.9,6.5c4.9,0,7.8-2.4,7.8-6.5
		C125.4,17.1,122.5,14.7,117.6,14.7z"/>
	<path class="st0" d="M170.1,68V45.8c0-11.5-3.8-15.4-15.2-15.4c-3.7,0-7.3,0.5-10.7,1.3c-3.5,0.8-5.2,1.5-9.3,3.5l3.1,8.2l1.5-0.5
		c3.4-1.4,5.3-1.9,8-2.4c1.3-0.2,3.1-0.4,4.1-0.4c4.2,0,5.6,1.5,5.6,5.5v1.1c-6.3,1-8.1,1.4-11.4,2.1c-1.8,0.5-3.6,1-5.3,1.7
		c-5.5,2.3-8.1,6.6-8.1,13.4c0,8.5,3.5,12.6,11,12.6c3.3,0,6.2-0.7,8.6-2.1c1.8-1,2.6-1.5,5.5-3.9v1.4c0,2.8,1.3,4.2,3.8,4.2h13.1
		v-4.6h-0.5C171.4,71.5,170.1,70.3,170.1,68z M157.3,63.2c-2.5,2.6-5.5,4.1-8.2,4.1c-2.9,0-4.1-1.3-4.1-4.6c0-3.7,0.9-5.2,3.9-6.4
		c2.3-0.9,4.5-1.5,8.4-2.1V63.2z"/>
	<path class="st0" d="M209.4,30.4c-5.4,0-9.4,1.9-15.2,7.2v-2.5c0-2.8-1.2-4.2-3.8-4.2h-13.3v4.9h0.6c2.6,0,3.9,1.1,3.9,3.5v36.8
		h13.2V45.5c3-2.8,5.4-3.9,8.2-3.9c3.2,0,4.1,1.3,4.1,5.9v28.6h13.3V45.3c0-6.4-0.6-9.1-2.5-11.4C216,31.5,213.3,30.4,209.4,30.4z"
		/>
	<path class="st0" d="M261.4,40.2v-9.3h-28.9c-3.4,0-4.7,1.4-4.7,4.7v8.2h4.9v-0.9c0-2.5,1.1-3.5,3.8-3.5H247l-19.5,27.3v9.4h34.9
		v-8.6H242L261.4,40.2z"/>
	<path class="st0" d="M350.5,29.4h-7.3v45.5h0.1H356v-40C356,30.9,354.5,29.4,350.5,29.4z"/>
	<path class="st0" d="M330.1,2.3c-26.6,0-46.5,19.9-46.5,46.5c0,26.6,19.9,46.5,46.5,46.5c26.6,0.1,46.5-19.8,46.5-46.5
		C376.6,22.2,356.7,2.3,330.1,2.3z M330.1,89.1c-23,0-39.7-17-39.7-40.3s16.7-40.3,39.7-40.3c23,0.1,39.7,17.1,39.7,40.3
		C369.8,72.2,353.1,89.1,330.1,89.1z"/>
	<path class="st0" d="M330.9,18.1h-11.6v5.5h0.7c2,0,2.4,0.1,2.9,0.7c0.5,0.6,0.7,1.4,0.7,3.2v47.3h12.8V23.6
		C336.4,19.5,335,18.1,330.9,18.1z"/>
	<path class="st0" d="M304,35v40h12.8v-0.1V29.5h-7.3C305.5,29.5,304,31,304,35z"/>
</g>
</svg>
