<?xml version="1.0" encoding="utf-8"?>
<!-- Generator: Adobe Illustrator 27.6.1, SVG Export Plug-In . SVG Version: 6.00 Build 0)  -->
<!DOCTYPE svg PUBLIC "-//W3C//DTD SVG 1.1//EN" "http://www.w3.org/Graphics/SVG/1.1/DTD/svg11.dtd" [
	<!ENTITY ns_extend "http://ns.adobe.com/Extensibility/1.0/">
	<!ENTITY ns_ai "http://ns.adobe.com/AdobeIllustrator/10.0/">
	<!ENTITY ns_graphs "http://ns.adobe.com/Graphs/1.0/">
	<!ENTITY ns_vars "http://ns.adobe.com/Variables/1.0/">
	<!ENTITY ns_imrep "http://ns.adobe.com/ImageReplacement/1.0/">
	<!ENTITY ns_sfw "http://ns.adobe.com/SaveForWeb/1.0/">
	<!ENTITY ns_custom "http://ns.adobe.com/GenericCustomNamespace/1.0/">
	<!ENTITY ns_adobe_xpath "http://ns.adobe.com/XPath/1.0/">
]>
<svg version="1.1" id="Warstwa_1" xmlns:x="&ns_extend;" xmlns:i="&ns_ai;" xmlns:graph="&ns_graphs;"
	 xmlns="http://www.w3.org/2000/svg" xmlns:xlink="http://www.w3.org/1999/xlink" x="0px" y="0px" viewBox="0 0 250.4 189.9"
	 style="enable-background:new 0 0 250.4 189.9;" xml:space="preserve">
<style type="text/css">
	.st0{fill:#C1210D;}
</style>
<metadata>
	<sfw  xmlns="&ns_sfw;">
		<slices></slices>
		<sliceSourceBounds  bottomLeftOrigin="true" height="140.2" width="175.4" x="17.8" y="72.9"></sliceSourceBounds>
	</sfw>
</metadata>
<g>
	<path class="st0" d="M73.6,163.3h-2.7v-12.7h1.6c2.6,0.1,4.1,1.6,4.6,6h1v-13.1h-1c0,0.1-0.2,5.6-4.8,5.6h-1.5v-12
		c7.6,0,10.4-0.4,11.7,8.8h0.8v-10.2H62.8v1.4h3.6v26.2h-3.9v1.4h21.2V154h-1.1C81.6,162.1,79.5,163.3,73.6,163.3z"/>
	<path class="st0" d="M62.5,149.6H50.9v1.3h4v9.4c-0.7,2.4-4.2,3.4-5.3,3.4c-7.4,0-6.9-10.7-6.9-13.6c0-2.6-0.3-13.6,6.9-13.6
		c5,0,7.7,4.9,8.8,9.4h0.8c0-1.8,0-10.5,0-10.5c0-0.1-3.5,2.5-3.5,2.4c0.1,0-1.6-2.3-6.1-2.3c-8.7,0-12,8.6-11.9,14.6
		c0,5.5,2.6,14.9,11.9,14.9c2.9,0,5-1.5,6.1-3.1l3.7,2.9V151h3.1V149.6z"/>
	<path class="st0" d="M189.3,163.3h-0.4v-26.2h3.7v-1.4h-12.1v1.4h3.7v26.2h-2.9l-10.9-28.4h-1.6c0,0-9,25.7-9,25.8
		c0-0.1-0.7,2.2-2.2,2.5c-1.4,0.1-1.3-0.6-1.3-0.9v-5c0-1.3-0.1-4.3-1.5-5.6c-1.5-1.5-4.2-1.6-4.1-1.7c0,0,6.7-1.4,6.7-7.6
		c0-4.4-3.1-6.6-8.3-6.8h-14.7v1.4h3.8v26.2h-3.8v1.4h12v-1.4h-3.8v-12.6h5c8.7,0.7-1.5,14,9.9,14h7.2v-1.4c-0.4,0-3,0.1-3.2-1.7
		c-0.1-1.3,1.7-6,1.7-6h9.8c0,0,3,7.7,3.1,7.7h-3.4v1.4h26.6v-10.7l-1,0.1C197.2,162.1,195.2,163.3,189.3,163.3z M147.6,149.3h-4.8
		v-12.2h6.1c3.6,0.5,3.7,4.6,3.7,5.9C152.7,146.2,151.3,149.3,147.6,149.3z M164.1,154.3l4.2-12.5l4.5,12.5H164.1z"/>
	<path class="st0" d="M122.8,163.3h-2.7v-12.7h1.6c2.6,0.1,4.1,1.6,4.6,6h1v-13.1h-1c0,0.1-0.2,5.7-4.8,5.6H120v-11.9
		c7.6,0,10.4-0.4,11.7,8.8h0.8v-10.2h-30v1.4h0.8c1.1,0,3.6,0.1,3.7,2.3v16.6l-14-20.3h-7.7v1.4h1.3c1.5,0,3.6,0.1,3.7,2.3v21.4
		c0,2.1-3.2,2.9-4.5,2.9v1h10.4v-1c-1.3,0-4.5-0.8-4.5-2.9v-18.8c5.6,7.8,16.1,22.8,16.2,22.8h0.5v-25.3c0.1-2.2,2.7-2.3,3.7-2.3
		h3.4v26.2h-3.9v1.4h21.2v-10.7h-1.1C130.7,162.1,128.6,163.3,122.8,163.3z"/>
	<polygon class="st0" points="200.8,137.1 204.5,137.1 204.5,163.3 200.8,163.3 200.8,164.7 212.7,164.7 212.7,163.3 209,163.3 
		209,137.1 212.7,137.1 212.7,135.7 200.8,135.7 	"/>
	<path class="st0" d="M181.1,118.1v-0.2l3.7-1.4h0.1c5.3-2.2,6-3.5,5.8-7v-14c4,10,7.8,17.1,15.6,17.1c1.1,0,2.2-0.1,3.4-0.4l3-0.7
		l-2.1-2.3c-1.3-1.4-2-2.6-2.7-3.9c-0.3-0.5-0.6-1.1-1-1.7c-1.8-2.9-6.1-3.9-9.6-2.3c-1.6-3.1-3.2-7.2-5.1-12.2l-0.4-1
		c-0.3-0.7-0.7-1.5-1-2.2v-0.1h-0.1c-1.2-2.6-2.5-5.3-4-7.8c-1.4-2.3-2.8-4.2-4.3-5.9c-4-4.7-9.4-7.6-15.9-8.7
		c-4.5-0.7-7.7-0.9-11.8-1.1c-0.8,0-1.7-0.1-2.6-0.1c-1.8-0.1-5.6-0.4-9.3-0.7c-2.5-0.2-5-0.4-7-0.6c0.1-0.6,0.2-1.1,0.2-1.7
		c0-0.8-0.1-1.5-0.2-2.1h26c6.7,0,11.5-2.9,14.4-8.7c6.6-0.1,11.5-3,14.3-8.8h0.9c6.9,0,11.9-3.1,14.7-9.3l1.2-2.5h-88.1
		c-5.7,0.1-10.7,3.8-12.5,9.5l-0.1,0.2c-1.5-4.1-4.2-7.6-7.7-9.7C94,25,88.5,24.1,84.1,25.3c-1.5,0.4-2.9,1.1-4.1,1.8
		c-1,0.7-2.4,1.7-3.5,3c-1.1,1.4-2.2,3.1-3,4.7c-0.5,0.4-0.9,0.8-1.2,1.2l-1,2.1l-0.1,0.1c-1.3,2.8-2.8,4.7-4,6.1
		C66,45.7,66,47,66.1,47.8c0.2,0.9,0.7,1.7,1.2,2.2v0.1c-0.4,0.6-0.5,1.3-0.5,2c0,2.3,2,4,4.5,4c1.8,0,3.3-0.8,4.8-1.9
		c0.6-0.4,2.3-1.5,2.9-1.6c0.7,0,1.3,0.6,1.3,1.3c0,1.9-2.5,2.9-4.2,3l-3.6,0.4c-2.6,0.2-3.8,1.6-3.8,2.8s0.6,1.9,1,2.3l0.3,0.3
		l0.9,0.8l-3.8,6c-2.7-2.5-5.9-4-8.7-4c-1.8-0.1-3.4,0.5-4.5,1.6c-0.3,0.3-0.6,0.7-0.9,1.1h-0.1c-3,0-5.4,1.6-6.6,3.4
		c-1.3,1.9-0.8,5.3,0.8,7.9L37.5,82v45.1h175.4v-9H181.1z M203.7,105.6c0.4,0.6,0.7,1.1,0.9,1.6c0.4,0.6,0.7,1.2,1.1,1.8
		c-2.8-0.2-4.8-1.7-6.8-4.5C200.8,103.9,202.9,104.3,203.7,105.6z M165.8,67c5.7,0.9,10.3,3.4,13.8,7.5c0.7,0.9,1.5,1.8,2.2,2.8
		c-9.5-1.2-12.8-2.6-18.1-10.6C164.3,66.8,165,66.9,165.8,67z M161.7,53.6h-17.9c1.5-1.3,2.8-3,3.8-5.1h24.3
		C169.6,52,166.3,53.6,161.7,53.6z M175.9,44.9h-17.8c1.6-1.4,2.9-3.1,3.9-5.3h24.3C184,43.2,180.6,44.9,175.9,44.9z M177.1,31.5
		h24.2c-2.3,3.2-5.5,4.6-10,4.6h-17.9C174.9,34.9,176.1,33.3,177.1,31.5z M79.3,32.4c0.6-0.7,1.5-1.5,2.6-2.2c0.9-0.6,2-1.1,3.1-1.4
		c1.8-0.5,3.8-0.5,5.8-0.1l-6.3,3.8c-0.8-0.1-1.6-0.1-2.3-0.1c-1.1,0-2.1,0.1-3,0.2C79.2,32.5,79.3,32.4,79.3,32.4z M72.3,59.9
		l3.1,0.1c3.8-0.1,7.7-1.7,8.1-5.6c0-2.6-1.9-5.2-4.6-5.2c-1.4,0-3.1,1-4.9,2.2c-1.2,0.8-2.1,1.4-2.8,1.4c-0.5,0-0.9-0.3-0.9-0.6
		v-0.1l2-2.6l-1.7-1.1c-0.4-0.2-0.9-0.7-1-1c0-0.2,0.2-0.4,0.3-0.5c0.7-0.8,1.5-1.8,2.4-3.1c0.5-0.7,0.8-1.1,1.7-1.1
		s1.5,0.7,1.5,1.5c0,0.5,0.6,1,1.3,1c0.8,0,1.1-0.5,1.6-1c0,0,1.8-1.6,0.8-2.4c-1.1-0.9-5.4,0.9-4.2-3l0.3-0.6
		c0.5-0.6,2.5-2.1,6.8-2.1c0.8,0,1.7,0.1,2.5,0.2l0.6,0.1l9-5.5c0.3,0,0.3,0.1,0.3,0.1v0.1c0.5,2.7-1.3,5.9-4,7.5l-1.1,0.5l0.7,4
		c-2.3,0.7-3.9,2.5-3.9,4.7c0,0.8,0.2,1.7,0.4,2.8c0.3,1.3,0.5,2.7,0.6,4.2c0,4.2-5.9,7-10.8,6.8h-0.1c-0.2,0-3.4-0.3-4.1-0.9
		c-0.3,0-0.4-0.3-0.4-0.4C71.9,60.1,72.1,59.9,72.3,59.9z M49.4,73.4c0.7-1.1,2.4-2,4.4-1.7l1.6,0.3l0.5-1.5
		c0.1-0.4,0.3-0.7,0.5-0.9c0.4-0.4,1.1-0.6,1.9-0.6c2.2,0.1,4.9,1.6,7.2,3.9c0.8,0.9,1.5,1.8,2.2,2.8c0.1,0.2,0.3,0.4,0.4,0.6
		c0.2,0.3,0.3,0.5,0.4,0.6c0.1,0.1,1.2,1.8,1.1,1.9c0.8-1,1.5-2.1,2.3-3.1c0,0,0-0.1-0.1-0.3c-0.2-0.4-0.6-1-0.8-1.3
		c-0.1-0.1-0.1-0.2-0.2-0.3c0,0-0.1-0.2-0.3-0.4c-0.3-0.4-0.6-0.9-0.8-1.3l4.7-7.5c1.2,0.2,2.2,0.3,2.7,0.3h0.1
		c6.7,0,13.6-3.8,13.6-10.2v-0.2c-0.1-1.7-0.4-3.4-0.7-4.7c-0.2-0.9-0.3-1.7-0.3-2.1c0-0.7,1-1.5,2.4-1.5h2.2l-1-5.5
		c3-2.2,4.9-5.8,4.8-9.2c3.3,2.5,5.6,6.8,6,11.3c0.1,1.3-0.1,3.2-0.6,5.1l-0.2,0.8c-0.8,3.2-1.9,6.5-2.5,8l-0.6,1.4l1.4,0.8
		c2.4,1.4,3.9,2.4,3.9,5.5c0,3.6-3.3,6.4-6.5,7l-4.4,0.8l3.7,2.4c1.2,0.8,1.9,2.1,1.9,3.4c0,2.3-2,4.1-4.4,4.1h-1.4l-0.4,1.3
		c-1.4,4.4-2.8,6.5-7.6,7c0.2-1.3,0.4-2.6,0.4-4.4c0-0.4,0-1.6-0.1-2l-0.2-4.1l-2.8,3.2c-1,1-2.7,1.8-4.6,2.1v-3.6l-20.8-5.3
		L51,78.2C49.4,76.7,49,74,49.4,73.4z M43.5,117.8l14.9-3.8l14.9,3.8H43.5z M75.5,114.7l-17.1-4.4l-17.1,4.4V84.5l17.1-4.4l17.1,4.4
		V114.7z M83.5,108.8c-1.5,2.2-1.7,5.2-0.6,9h-3.8V88.9c1.3-0.2,2.8-0.6,4.1-1.2c-0.1,1.3-0.3,2.3-0.5,3.6c-0.1,0.3-0.1,0.6-0.2,1
		l-0.4,2.1h2.2c3.2,0,5.6-0.5,7.4-1.4v12.1c0,0.3-0.2,0.6-0.5,0.6h-0.5C87.6,105.6,84.9,106.7,83.5,108.8z M121.1,117.8H98.9
		c2.4-0.2,4.1-0.8,5.3-2c1.5-1.5,1.6-3.5,1.5-5c0.1-0.1,0.3-0.6,1.4-1.1l1.9-0.9l-1.1-1.7c-1.9-2.9-1.1-9.2-0.3-12.6h0.2
		c7.5,0,12.4-1.5,17.5-3.2c1.3-0.4,2.7-0.9,4.2-1.3h0.1c0,0,1.5-0.5,3.6-1l7.2,11.8l0.1,0.1c0.7,1,0.8,1.7-0.5,3.2l-3.6,3.9
		l-5.9-1.1h-0.1c-2.8-0.4-5.7,0.7-7.5,2.7C121.6,111.1,120.3,113.7,121.1,117.8z M124.9,117.7L124.9,117.7c-0.7-2.4-0.4-4.5,0.8-5.8
		c1.1-1.3,2.8-1.6,4.1-1.5l6.9,1.3h0.2h1l4.9-5.2v-0.1c0.8-1,3.4-3.9,0.8-7.5l-6.5-10.6c1.1-0.2,2.2-0.3,3.2-0.3h0.1
		c0,0,3.3-0.1,6.8,2c0.5,1,1.1,2.3,1.9,3.8c1.4,2.7,3.1,6.1,3.5,7.5c0.2,0.4,0.6,1.7-1,3.4l-12.5,13H124.9z M167.5,117.8h-23.6
		l10.1-10.5c2-2.1,2.7-4.6,1.8-7c-0.5-1.4-1.8-4.1-3.2-6.9c4,1.8,10.1,3.5,22.5,4.5c1.5,0.1,1.9,0.6,2.2,2l0.5,5.3l-6.5,1.4
		c-2.2,0.4-3.9,1.8-4.7,3.9C165.8,112.6,166.1,115.2,167.5,117.8z M170,111.6c0.4-0.9,1.1-1.5,2-1.6l9.7-2.1l-0.9-8.5v-0.2
		c-0.2-1.1-1-4.5-5.5-4.9c-17.3-1.4-21.4-3.9-25.6-6.6l-0.3-0.2c-4.5-2.9-9-2.9-9.4-2.9c-4.9,0-11.1,1.9-11.6,2.1
		c-1.5,0.4-2.9,0.9-4.3,1.3c-5.4,1.7-10.1,3.2-18,3h-1.4l-0.4,1.4c-0.3,1.1-2.5,9.6-0.4,15.2c-1.9,1.5-1.9,3.2-1.9,3.4
		c0.1,1.9-0.4,2.3-0.5,2.5c-0.9,0.9-3.9,1.1-6.5,1.1h-1l-0.3,0.5c-1.6,2.1-5,2.6-7.1,2.1c-1-2.9-1-5-0.1-6.4
		c1.1-1.5,3.4-1.7,4.3-1.7h0.5c2.3,0,4.2-1.9,4.2-4.1V89.6c0.7-1.1,1.3-2.3,1.8-3.7c3.8-0.6,6.7-3.8,6.7-7.6c0-1.5-0.4-2.9-1.2-4.1
		c3.5-1.7,6.5-5.1,6.5-9.5c0-4.4-2.3-6.5-4.4-7.9c0.6-1.7,1.6-4.7,2.3-7.7l3-10.7c1.4-4.2,4.9-6.9,9.1-6.9h53.6
		c-2.3,3.2-5.5,4.6-10,4.6h-32.4l-1.7,3.6h29.1c-2.3,3.6-5.6,5.3-10.4,5.3h-21.1l-1.7,3.6h18.8c-2.3,3.5-5.6,5.1-10.3,5.1h-11.4
		l-1.7,3.4h12c0.1,0.2,0.4,0.7,0.4,2.1c0,2.3-2,4.2-4.4,4.2c-0.8,0-1.5-0.2-2.8-0.7c-0.5-0.2-1.1-0.4-1.6-0.7l-2.8,2.5
		c0.5,0.2,1,0.4,1.6,0.7c2.4,1,3.8,1.6,5.6,1.6c2.2,0,4.2-0.9,5.6-2.3c2.1,0.1,5.4,0.4,8.6,0.7c3.8,0.3,7.5,0.6,9.4,0.7
		c0.9,0.1,1.8,0.1,2.7,0.1c1.6,0.1,3.1,0.2,4.5,0.3c7.3,11.7,11.1,13.2,25.2,14.9c1,1.8,1.9,3.7,2.8,5.6v22.9c0.1,1,0.1,1.4-0.1,1.6
		c-0.5,0.6-2.7,1.5-3.4,1.8l-11.9,4.4C170,115.4,169.4,113.2,170,111.6z"/>
	<path class="st0" d="M45.5,91.1c-0.2,0.1-0.3,0.1-0.4,0.1c-0.1,0-0.1,0-0.1-0.1c0,0,0-0.1,0-0.4v-1.1c0.5-0.1,0.8-0.2,1-0.3
		c0.3-0.1,0.5-0.3,0.7-0.6s0.3-0.5,0.3-0.8s-0.1-0.6-0.4-0.7c-0.3-0.2-0.7-0.2-1.3,0l-1.8,0.5v0.2c0.2-0.1,0.3-0.1,0.4-0.1
		c0.1,0,0.1,0,0.1,0.1c0,0,0,0.1,0,0.4l-0.1,2.6c0,0.3,0,0.4,0,0.4c0,0.1-0.1,0.1-0.1,0.2c-0.1,0.1-0.2,0.1-0.4,0.1v0.2l2.1-0.5
		V91.1z M45.1,87.6c0.2-0.1,0.4-0.1,0.5,0.1c0.1,0.1,0.2,0.3,0.2,0.6c0,0.3-0.1,0.5-0.2,0.7c-0.1,0.2-0.3,0.3-0.5,0.4H45L45.1,87.6z
		"/>
	<path class="st0" d="M46.5,90.9v0.2l1.4-0.4v-0.2c-0.2,0-0.3,0-0.4,0s-0.1-0.1-0.1-0.2c0-0.1,0-0.2,0.1-0.3l0.2-0.4l1.4-0.4
		l0.2,0.4c0.1,0.2,0.1,0.2,0.1,0.2v0.1c0,0.1,0,0.1-0.1,0.1c-0.1,0.1-0.2,0.1-0.3,0.1h-0.1v0.2l2-0.5v-0.2c-0.1,0-0.2,0-0.3,0
		c-0.1,0-0.2-0.2-0.3-0.5l-1.4-2.9h-0.1l-1.5,3.6c-0.1,0.3-0.3,0.6-0.4,0.7C46.8,90.7,46.7,90.8,46.5,90.9z M48.4,87.9l0.5,1.1
		l-1.1,0.3L48.4,87.9z"/>
	<polygon class="st0" points="53.9,86.3 53.6,86.7 53.6,86.7 	"/>
	<path class="st0" d="M52.7,89.3c-0.2,0-0.3,0.1-0.3,0.1c-0.1,0-0.1,0-0.2-0.1l-0.1-0.1c0,0,0.1-0.2,0.3-0.5l0.6-0.9l0.5,0.7
		c0.1,0.1,0.2,0.2,0.2,0.3v0.1c0,0,0,0.1-0.1,0.1c0,0-0.1,0.1-0.3,0.1v0.2l2-0.5v-0.2c-0.1,0-0.2,0-0.3,0s-0.2-0.1-0.4-0.4l-1.1-1.4
		l0.1-0.1l-0.5-0.6l-0.2-0.3v-0.1c0-0.1,0-0.1,0.1-0.1c0-0.1,0.1-0.1,0.2-0.1h0.1v-0.2l-2,0.5V86c0.1,0,0.2,0,0.2,0s0.1,0,0.1,0.1
		c0,0,0.1,0.1,0.3,0.3l1,1.2l-0.8,1.2c-0.2,0.4-0.4,0.6-0.6,0.7c-0.1,0.1-0.2,0.2-0.4,0.2v0.2l1.6-0.4V89.3z"/>
	<path class="st0" d="M54.7,85.2c0.1-0.1,0.2-0.2,0.2-0.2c0.1,0,0.2-0.1,0.3-0.1v-0.2l-1.3,0.4v0.2c0.1,0,0.2,0,0.3,0
		c0.1,0,0.1,0,0.1,0.1v0.1c0,0.1-0.1,0.2-0.3,0.6l-0.1,0.1l0.4-0.5C54.5,85.4,54.6,85.2,54.7,85.2z"/>
	<path class="st0" d="M45.8,93.5l0.3-0.1c0.2,0,0.3-0.1,0.4-0.1s0.2,0.1,0.3,0.2c0.1,0.1,0.1,0.2,0.2,0.5h0.2v-1.2l-3.7,0.9v1.2h0.1
		c0.1-0.3,0.2-0.6,0.3-0.8c0.1-0.1,0.3-0.2,0.6-0.3l0.2-0.1l-0.1,3.1c0,0.2,0,0.3,0,0.4s-0.1,0.1-0.1,0.2c-0.1,0.1-0.2,0.1-0.3,0.1
		H44v0.2l2.1-0.5v-0.1c-0.1,0-0.2,0-0.3,0c-0.1,0-0.1-0.1-0.1-0.1s0-0.1,0-0.4L45.8,93.5z"/>
	<path class="st0" d="M49,93.2c0.1-0.3,0.1-0.4,0.1-0.5l0.1-0.1c0.1-0.1,0.2-0.1,0.3-0.1h0.2v-0.2l-2.2,0.5V93l0.2-0.1
		c0.1,0,0.2,0,0.2,0c0.1,0,0.1,0,0.1,0.1c0,0,0,0.1,0,0.4l-0.1,2.7c0,0.3,0,0.3,0,0.4c0,0.1-0.1,0.1-0.1,0.2
		c-0.1,0.1-0.2,0.1-0.3,0.1h-0.2V97l2.1-0.6v-0.2l-0.2,0.1c-0.1,0-0.2,0-0.2,0c-0.1,0-0.1-0.1-0.1-0.1s0-0.1,0-0.4L49,93.2z"/>
	<path class="st0" d="M50.5,95.4c0,0.3,0,0.4,0,0.4c-0.1,0-0.1,0.1-0.2,0.1C50.2,96,50.1,96,49.9,96v0.2l2.1-0.5
		c0.6-0.2,1-0.4,1.3-0.7s0.4-0.6,0.4-0.9c0-0.3-0.1-0.5-0.3-0.7c-0.1-0.1-0.4-0.1-0.7-0.1c0.3-0.2,0.5-0.3,0.6-0.5
		c0.1-0.2,0.2-0.4,0.2-0.6s-0.1-0.4-0.2-0.5c-0.1-0.1-0.3-0.2-0.5-0.3c-0.2,0-0.5,0-1,0.1L49.9,92v0.2H50c0.2-0.1,0.3-0.1,0.4-0.1
		c0.1,0,0.1,0,0.1,0.1c0,0,0,0.1,0,0.4V95.4z M51.5,92.1C51.8,92,52,92,52.1,92c0.1,0,0.2,0.1,0.3,0.2c0.1,0.1,0.1,0.2,0.1,0.4
		c0,0.2,0,0.3-0.1,0.5c-0.1,0.1-0.2,0.2-0.3,0.3c-0.1,0.1-0.3,0.2-0.6,0.2V92.1z M51.5,93.9c0.3-0.1,0.5-0.1,0.6-0.1
		c0.1,0,0.2,0.1,0.3,0.2c0.1,0.1,0.1,0.3,0.1,0.5c0,0.2,0,0.3-0.1,0.5c-0.1,0.2-0.2,0.3-0.3,0.4c-0.1,0.1-0.3,0.2-0.4,0.2
		c-0.1,0-0.2,0-0.2,0s-0.1-0.1-0.1-0.2L51.5,93.9z"/>
	<path class="st0" d="M55.6,91.4c0-0.2,0-0.3,0-0.4c0,0,0.1,0,0.1-0.1c0.1-0.1,0.2-0.1,0.3-0.1h0.2v-0.2L54,91.1v0.2l0.2-0.1
		c0.1,0,0.2,0,0.2,0c0.1,0,0.1,0.1,0.1,0.1s0,0.1,0,0.4v2.7c0,0.3,0,0.3,0,0.4c0,0.1-0.1,0.1-0.1,0.2c-0.1,0.1-0.2,0.1-0.3,0.1h-0.2
		v0.2l2.1-0.6v-0.2l-0.2,0.1c-0.1,0-0.2,0-0.2,0c-0.1,0-0.1-0.1-0.1-0.1s0-0.1,0-0.4L55.6,91.4z"/>
	<polygon class="st0" points="46.2,101.8 46.2,101.8 47.1,99.5 47.1,99.4 	"/>
	<path class="st0" d="M48.3,102.5c0,0,0-0.1,0-0.4l0.1-2.7c0-0.2,0-0.3,0-0.4s0.1-0.1,0.1-0.2c0.1-0.1,0.2-0.1,0.3-0.1H49v-0.2
		l-1.7,0.4l-0.2,0.5v2.8c0,0.3,0,0.3,0,0.4c0,0.1-0.1,0.1-0.1,0.2c-0.1,0.1-0.2,0.1-0.3,0.1h-0.2v0.2l2-0.5l0,0c-0.1,0-0.1,0-0.1,0
		C48.3,102.6,48.3,102.5,48.3,102.5z"/>
	<path class="st0" d="M48.6,102.6h0.1c0,0,0.1-0.1,0.1-0.1L48.6,102.6C48.5,102.6,48.6,102.6,48.6,102.6z"/>
	<path class="st0" d="M56.5,100l-0.9-1.1c0.2-0.1,0.4-0.3,0.5-0.4c0.2-0.3,0.3-0.5,0.3-0.8s-0.1-0.5-0.2-0.6
		c-0.1-0.2-0.3-0.2-0.6-0.3c-0.2,0-0.6,0.1-1.1,0.2l-1.9,0.5v0.2h0.1c0.2-0.1,0.3-0.1,0.4-0.1c0.1,0,0.1,0,0.1,0.1c0,0,0,0.1,0,0.4
		v2.6c0,0.3,0,0.4,0,0.4c0,0.1-0.1,0.1-0.1,0.2c-0.1,0-0.2,0.1-0.3,0.1c-0.1,0-0.2,0-0.2,0c-0.1-0.1-0.2-0.2-0.3-0.5L50.9,98h-0.1
		l-1.5,3.6c-0.1,0.3-0.3,0.6-0.3,0.7c-0.1,0.1-0.1,0.1-0.2,0.2l1.1-0.3V102c-0.2,0.1-0.3,0.1-0.4,0c0-0.1,0-0.2,0.1-0.3l0.2-0.4
		l1.4-0.4l0.2,0.4c0.1,0.2,0.1,0.2,0.1,0.2v0.1c0,0.1,0,0.1-0.1,0.1c-0.1,0.1-0.2,0.1-0.3,0.1H51v0.3l1.9-0.5H53l2-0.5v-0.2h-0.1
		c-0.1,0.1-0.2,0.1-0.3,0.1c0,0,0,0-0.1,0s-0.1,0-0.1-0.1c0,0,0-0.1,0-0.4v-1.1l0.2-0.1l1.2,1.5l1.3-0.3v-0.2c-0.1,0-0.2,0-0.3,0
		C56.8,100.3,56.7,100.2,56.5,100z M49.8,100.9l0.6-1.4l0.5,1.1L49.8,100.9z M55.1,98.8C55,98.9,54.8,99,54.5,99h-0.1v-1.7l0.3-0.1
		c0.3-0.1,0.5-0.1,0.7,0c0.1,0.1,0.2,0.3,0.2,0.6c-0.1,0.4-0.1,0.5-0.2,0.7C55.3,98.7,55.2,98.8,55.1,98.8z"/>
	<path class="st0" d="M43.4,99.9v0.2l0.2-0.1c0.1,0,0.2,0,0.2,0c0.1,0,0.1,0.1,0.1,0.1s0,0.1,0,0.4v2.5c0,0.2,0,0.3,0,0.3
		c0,0.1-0.1,0.2-0.1,0.2c0,0.1-0.1,0.1-0.2,0.2c-0.1,0.1-0.2,0.1-0.2,0.1h-0.1v0.3l1.4-0.4v-0.2h-0.1c-0.2,0.1-0.3,0.1-0.4,0
		c-0.1,0-0.1-0.1-0.1-0.2c0,0,0-0.1,0-0.4v-2.7l1.4,3.1h0.1l0.6-1.5l-1.1-2.3L43.4,99.9z"/>
	<path class="st0" d="M46.8,105.2C46.8,105.3,46.7,105.3,46.8,105.2c-0.1,0.1-0.3,0.1-0.4,0.1c-0.3,0-0.6,0-0.9,0.1
		c-0.4,0.1-0.8,0.3-1.1,0.6c-0.3,0.3-0.6,0.6-0.8,1c-0.2,0.4-0.3,0.8-0.3,1.2s0.1,0.7,0.3,1c0.2,0.3,0.4,0.5,0.8,0.6
		c0.2,0,0.3,0.1,0.5,0.1c0.2,0,0.4,0,0.7-0.1c0.3-0.1,0.6-0.2,0.9-0.4s0.5-0.4,0.7-0.7v-0.6l-0.1,0.1c-0.2,0.3-0.5,0.6-0.7,0.7
		c-0.2,0.2-0.4,0.3-0.7,0.3c-0.3,0.1-0.5,0.1-0.7,0c-0.3-0.1-0.5-0.2-0.5-0.5c-0.1-0.3-0.1-0.6-0.1-0.9c0-0.4,0.1-0.7,0.2-1
		c0.1-0.3,0.3-0.5,0.5-0.7c0.2-0.2,0.4-0.3,0.7-0.4s0.5-0.1,0.8,0.1c0.2,0.1,0.4,0.4,0.5,0.7l0.2-0.1v-1.5l-0.4,0.1
		C46.9,105.1,46.9,105.2,46.8,105.2z"/>
	<path class="st0" d="M50.5,107.7c-0.2,0.2-0.5,0.4-0.9,0.5l-0.2,0.1c-0.1,0-0.2,0-0.2,0s-0.1,0-0.1-0.1c0,0,0-0.1,0-0.4v-1.1
		c0.2,0,0.3-0.1,0.4,0c0.1,0,0.2,0.1,0.2,0.2c0.1,0.1,0.1,0.3,0.1,0.5v0.1l0.2-0.1v-2.2l-0.2,0.1c0,0.3-0.1,0.6-0.2,0.8
		c-0.1,0.2-0.3,0.3-0.5,0.4v-1.6l0.4-0.1c0.3-0.1,0.5-0.1,0.6-0.1c0.2,0,0.3,0.1,0.4,0.2s0.2,0.3,0.2,0.6l0.2-0.1v-1.3l-3.4,0.9v0.1
		l0.2-0.1c0.1,0,0.2,0,0.3,0l0.1,0.1c0,0,0,0.1,0,0.3l-0.1,2.7c0,0.2,0,0.3,0,0.4c0,0.1-0.1,0.1-0.1,0.2c-0.1,0.1-0.2,0.1-0.3,0.1
		h-0.2v0.2l3.5-0.9l0.2-1.4l-0.1,0.1C50.9,107.2,50.7,107.5,50.5,107.7z"/>
	<path class="st0" d="M56.1,106.3c-0.2,0.2-0.5,0.4-0.9,0.5l-0.2,0.1c-0.1,0-0.2,0-0.2,0s-0.1,0-0.1-0.1c0,0,0-0.1,0-0.4v-1.1
		c0.2,0,0.3-0.1,0.4,0c0.1,0,0.2,0.1,0.2,0.2c0,0.1,0.1,0.3,0.1,0.5v0.1l0.2-0.1v-2.2l-0.2,0.1c0,0.3-0.1,0.6-0.2,0.8
		c-0.1,0.2-0.3,0.3-0.5,0.4v-1.6l0.4-0.1c0.3-0.1,0.5-0.1,0.6-0.1c0.2,0,0.3,0.1,0.4,0.2c0.1,0.1,0.2,0.3,0.2,0.5h0.2v-1.3l-3.4,0.9
		v0.2l0.2-0.1c0.1,0,0.2,0,0.3,0l0.1,0.1c0,0,0,0.1,0,0.3l-0.1,2.7c0,0.2,0,0.3,0,0.4c0,0.1-0.1,0.1-0.1,0.2
		c-0.1,0.1-0.2,0.1-0.3,0.1H53v0.2l3.5-0.9l0.2-1.4h-0.1C56.5,105.8,56.3,106.1,56.1,106.3z"/>
	<path class="st0" d="M60.1,85.4l1.5,3.6h0.1l1.3-2.8c0.2-0.3,0.3-0.5,0.3-0.6c0.1-0.1,0.2-0.1,0.4-0.1v-0.2l-1.4-0.4v0.2
		c0.1,0,0.2,0.1,0.3,0.1c0.1,0,0.1,0.1,0.1,0.1c0,0.1,0.1,0.1,0.1,0.2c0,0.1,0,0.1,0,0.2c0,0.1-0.1,0.2-0.2,0.4l-0.7,1.5L61,85.5
		c-0.1-0.2-0.2-0.4-0.2-0.4c0-0.1,0-0.1,0-0.1c0-0.1,0-0.1,0-0.1c0.1,0,0.2,0,0.3,0h0.1v-0.2l-2-0.5v0.2c0.4,0.1,0.5,0.2,0.6,0.2
		C59.9,84.7,60,84.9,60.1,85.4z"/>
	<path class="st0" d="M63.4,89.1l-0.1,0.2l1.4,0.4v-0.2c-0.3-0.1-0.3-0.1-0.4-0.2c-0.1-0.1-0.1-0.2-0.1-0.3c0-0.1,0-0.2,0.1-0.3
		l0.1-0.3l1.4,0.4l0.2,0.5c0.1,0.2,0.1,0.2,0.1,0.2v0.1c0,0.1,0,0.1,0,0.1H66c-0.1,0-0.1,0-0.2,0h-0.1v0.2l2,0.5v-0.2
		c-0.1,0-0.2-0.1-0.3-0.2c-0.1-0.1-0.2-0.3-0.3-0.7l-1.6-3.6h-0.1L64,88.6c-0.1,0.3-0.2,0.4-0.3,0.5C63.6,89.1,63.5,89.2,63.4,89.1z
		 M65.1,87.1l0.6,1.4l-1.2-0.3L65.1,87.1z"/>
	<path class="st0" d="M68.1,86.7c0.1,0.1,0.1,0.1,0.2,0.3l0.1,0.1l0.1,2.8c0,0.2,0,0.3-0.1,0.4c-0.1,0.1-0.2,0.1-0.4,0h-0.1v0.2
		l1.5,0.4v-0.2h-0.1c-0.1,0-0.2-0.1-0.3-0.2c-0.1-0.1-0.2-0.3-0.2-0.5l-0.1-2.4l2.7,4l0.2,0.1l-0.1-3.6c0-0.2,0-0.3,0-0.4
		s0.1-0.1,0.1-0.1c0.1,0,0.2,0,0.3,0v-0.2l-1.3-0.3v0.2c0.2,0.1,0.4,0.1,0.5,0.3c0.1,0.1,0.1,0.3,0.1,0.5v1.6l-2-2.9l-1.5-0.4
		l0.1,0.2C67.9,86.6,68,86.7,68.1,86.7z"/>
	<path class="st0" d="M63.3,91.3L63.3,91.3c0,0.1,0,0.1,0.1-0.1L63.3,91.3z"/>
	<path class="st0" d="M61,91.3c0.2-0.1,0.4-0.1,0.7-0.1c0.3,0.1,0.6,0.3,0.8,0.5c0.3,0.3,0.4,0.6,0.6,1l0.2,0.1v-1.4h-0.1
		c0,0-0.1,0-0.3-0.2c-0.3,0-0.4-0.1-0.5-0.1c-0.2-0.1-0.3-0.1-0.5-0.2c-0.6-0.2-1.1-0.1-1.5,0.3c-0.4,0.3-0.6,0.8-0.6,1.4
		c0,0.3,0.1,0.7,0.2,1c0.1,0.2,0.3,0.5,0.4,0.7c0.2,0.2,0.4,0.4,0.6,0.6s0.5,0.3,0.9,0.4c0.3,0.1,0.6,0.1,0.8,0.1h0.1
		c0.2,0,0.4,0,0.6-0.1v-0.9c0-0.2,0-0.2,0-0.3c0-0.1,0.1-0.1,0.1-0.1c0.1,0,0.1,0,0.3,0h0.1v-0.2L62,93.3v0.2h0.1
		c0.1,0,0.2,0.1,0.2,0.1c0.1,0.1,0.1,0.1,0.1,0.2c0,0,0,0.1,0,0.3v0.8c-0.1,0-0.2,0-0.3,0c-0.1,0-0.2,0-0.3,0
		c-0.3-0.1-0.5-0.2-0.7-0.4c-0.2-0.2-0.3-0.4-0.4-0.7c-0.1-0.3-0.1-0.7-0.2-1c0-0.3,0-0.6,0.1-0.9C60.7,91.6,60.8,91.4,61,91.3z"/>
	<path class="st0" d="M65.9,92.3c0.3,0.1,0.5,0.2,0.6,0.2c0.2,0.1,0.3,0.2,0.4,0.4c0.1,0.2,0.2,0.4,0.3,0.7l0.2,0.1v-1.2l-3.6-1v0.2
		H64c0.1,0,0.2,0.1,0.3,0.2c0.1,0.1,0.1,0.1,0.1,0.2c0,0,0,0.1,0,0.3l0.1,2.6c0,0.3,0,0.3,0,0.4c0,0.1-0.1,0.1-0.1,0.1
		c-0.1,0-0.2,0-0.3,0l-0.2-0.1v0.2l3.5,0.9l0.2-1.3l-0.2-0.1c-0.1,0.3-0.2,0.5-0.5,0.7c-0.2,0.1-0.5,0.1-0.9,0l-0.2-0.1
		c-0.1,0-0.2-0.1-0.2-0.1c-0.1,0-0.1-0.1-0.1-0.1s0-0.1,0-0.4V94c0.2,0.1,0.3,0.1,0.4,0.2c0.1,0.1,0.2,0.2,0.3,0.4
		c0.1,0.2,0.1,0.4,0.2,0.6l0.2,0.1l-0.1-2.2L66.3,93v0.1c0,0.3-0.1,0.5-0.2,0.6c-0.1,0.1-0.3,0.2-0.5,0.1h-0.1v-1.6L65.9,92.3z"/>
	<path class="st0" d="M69.6,93.1l0.2,0.1V93l-2.2-0.6v0.2h0.2c0.1,0,0.2,0.1,0.3,0.1c0.1,0.1,0.1,0.1,0.1,0.2c0,0,0,0.1,0,0.4
		l0.1,2.6c0,0.3,0,0.3,0,0.4c0,0.1-0.1,0.1-0.1,0.1c-0.1,0-0.2,0-0.3,0l-0.2-0.1v0.2l3.6,0.9l0.1-1.4l-0.2-0.1
		c-0.1,0.3-0.2,0.5-0.3,0.6c-0.1,0.1-0.2,0.2-0.3,0.3c-0.1,0-0.3,0-0.5,0l-0.3-0.1c-0.2-0.1-0.3-0.1-0.3-0.1c-0.1,0-0.1-0.1-0.1-0.2
		c0,0,0-0.1,0-0.4l-0.1-2.6c-0.1-0.2-0.1-0.2,0-0.3C69.4,93.1,69.5,93.1,69.6,93.1z"/>
	<path class="st0" d="M73.1,94c0.1,0,0.2,0,0.3,0l0.1,0.1v-0.2l-2.2-0.6v0.2h0.2c0.1,0,0.2,0.1,0.3,0.1c0.1,0.1,0.1,0.1,0.1,0.2
		c0,0,0,0.1,0,0.4l0.1,2.7c0,0.3,0,0.3,0,0.4c0,0.1-0.1,0.1-0.1,0.1c-0.1,0-0.1,0-0.3,0l-0.2-0.1v0.2l2.1,0.5h0.1v-0.2h-0.2
		c-0.1,0-0.2-0.1-0.3-0.1c-0.1,0-0.1-0.1-0.1-0.2c0,0,0-0.1,0-0.4l-0.1-2.7c0-0.3,0-0.3,0-0.4C73,94.1,73,94,73.1,94z"/>
	<path class="st0" d="M62.1,100.8c-0.1,0.1-0.3,0.1-0.5,0c-0.3-0.1-0.5-0.3-0.8-0.5c-0.3-0.3-0.4-0.7-0.5-1.1l-0.2-0.1v1.6l0.2,0.1
		c0-0.1,0.1-0.1,0.1-0.2c0.1,0,0.1,0,0.1,0c0.1,0,0.1,0.1,0.2,0.1c0.2,0.1,0.3,0.2,0.4,0.3c0.1,0.1,0.2,0.1,0.4,0.1s0.3,0.1,0.4,0.1
		c0.2,0,0.4-0.1,0.6-0.2c0.3-0.2,0.4-0.5,0.4-0.8s-0.1-0.5-0.3-0.8c-0.2-0.3-0.5-0.6-1-0.9C61.3,98.2,61,98.1,61,98
		c-0.1-0.1-0.2-0.2-0.3-0.3c0-0.1-0.1-0.2-0.1-0.2c0-0.1,0.1-0.2,0.2-0.3c0.1-0.1,0.3-0.1,0.4,0c0.3,0.1,0.5,0.2,0.7,0.5
		s0.4,0.6,0.4,0.9l0.2,0.1l0.1-1.6h-0.1c0,0.1-0.1,0.2-0.1,0.2h-0.1c0,0-0.1-0.1-0.3-0.2c-0.1-0.1-0.3-0.2-0.3-0.2
		c-0.1-0.1-0.3-0.1-0.4-0.2c-0.4-0.1-0.7-0.1-0.9,0.1c-0.2,0.2-0.4,0.4-0.3,0.8c0,0.2,0.1,0.4,0.2,0.6c0.1,0.2,0.2,0.4,0.4,0.5
		c0.2,0.2,0.4,0.4,0.8,0.7c0.3,0.2,0.4,0.4,0.5,0.5s0.2,0.2,0.2,0.3c0.1,0.1,0.1,0.2,0.1,0.3C62.3,100.7,62.2,100.8,62.1,100.8z"/>
	<path class="st0" d="M66.2,98.6v-0.1c0.1,0.1,0.2,0.2,0.3,0.3c0.1,0.1,0.2,0.3,0.2,0.6l0.2,0.1v-1.1l-3.6-0.9h-0.1v1.1l0.2,0.1
		c0-0.3,0.1-0.5,0.3-0.6c0.1-0.1,0.3-0.1,0.5,0l0.3,0.1l0.1,3.1c0,0.3,0,0.3,0,0.4s-0.1,0.1-0.1,0.1c-0.1,0-0.2,0-0.3,0l-0.2-0.1
		v0.2l2.1,0.5h0.1v-0.3H66c-0.1,0-0.2-0.1-0.3-0.1c-0.1-0.1-0.1-0.1-0.1-0.2c0,0,0-0.1,0-0.4l-0.1-3.1l0.3,0.1
		C66,98.5,66.1,98.5,66.2,98.6z"/>
	<path class="st0" d="M67.1,102.2v0.2l1.4,0.3h0.1v-0.2c-0.2-0.1-0.3-0.1-0.4-0.2c-0.1-0.1-0.1-0.2-0.1-0.3c0-0.1,0-0.2,0.1-0.3
		l0.1-0.3l1.4,0.4l0.2,0.5c0.1,0.2,0.1,0.2,0.1,0.2v0.1c-0.2,0.1-0.2,0.2-0.3,0.2c0,0-0.2,0-0.3,0h-0.1v0.2l2,0.5h0.1v-0.2
		c-0.1-0.1-0.2-0.1-0.3-0.2c-0.1-0.1-0.2-0.3-0.4-0.7l-1.5-3.7h-0.1l-1.4,2.9c-0.1,0.3-0.2,0.4-0.3,0.5
		C67.3,102.2,67.2,102.2,67.1,102.2z M68.7,100.1l0.6,1.4l-1.1-0.3L68.7,100.1z"/>
	<path class="st0" d="M71.5,105.5l-1.2-0.3h-0.1v0.2c0.1,0,0.2,0.1,0.3,0.1s0.1,0.1,0.1,0.1c0,0.1,0,0.1,0,0.2c0,0.1,0,0.1,0,0.2
		s-0.1,0.2-0.1,0.4l-0.6,1.5l-0.8-2.1c-0.1-0.2-0.1-0.4-0.2-0.4c0-0.1,0-0.1,0-0.1c0-0.1,0-0.1,0-0.1c0.1,0,0.1,0,0.3,0h0.1V105
		l-1.7-0.4l-2.9-0.8h-0.1l-1.3-0.3l-0.9,2.3l-1-2.8l-1.5-0.4h-0.1v0.2h0.1c0.1,0,0.2,0.1,0.2,0.1c0.1,0.1,0.1,0.1,0.1,0.2
		c0,0,0,0.1,0,0.4l0.1,2.5c0,0.2,0,0.3,0,0.3c0,0.1,0,0.1-0.1,0.2l-0.1,0.1c-0.1,0-0.1,0-0.2,0h-0.1v0.2l1.2,0.3h0.1v-0.2
		c-0.2-0.1-0.3-0.1-0.3-0.2c-0.1-0.1-0.1-0.2-0.1-0.3c0-0.1,0-0.2,0-0.4l-0.1-2.6l1.4,3.8h0.1l1.4-3.1l0.1,2.8c0,0.3,0,0.3,0,0.4
		c0,0.1-0.1,0.1-0.1,0.1c-0.1,0-0.1,0-0.2,0h-0.2v0.2l1.7,0.4l3.2,0.8l0.1-1.3h-0.2c-0.1,0.3-0.2,0.6-0.4,0.7s-0.4,0.1-0.8,0.1
		l-0.2-0.2c-0.1,0-0.2-0.1-0.2-0.1l-0.1-0.1c0-0.1,0-0.2,0-0.4v-1.1c0.1,0,0.3,0.1,0.3,0.2c0.1,0.1,0.2,0.2,0.2,0.3
		c0.1,0.2,0.1,0.4,0.1,0.6H67l-0.1-2.2l-0.2-0.1v0.1c0,0.3-0.1,0.5-0.2,0.6c0.1,0.2-0.1,0.2-0.3,0.2h-0.1v-1.6l0.3,0.1
		c0.3,0.1,0.4,0.1,0.5,0.2c0.2,0.1,0.3,0.2,0.4,0.4c0.1,0.2,0.2,0.4,0.2,0.7h0.2v-1.1c0.1,0.1,0.2,0.1,0.2,0.2
		c0,0.1,0.1,0.2,0.3,0.8l1.3,3.5h0.1l1.2-2.8c0.1-0.3,0.2-0.5,0.3-0.6c0.2-0.1,0.3-0.2,0.4-0.2V105.5z M65.3,107.6
		C65.3,107.7,65.2,107.7,65.3,107.6c-0.2,0.1-0.2,0.1-0.3,0.1s-0.2-0.1-0.2-0.1c-0.1-0.1-0.1-0.1-0.1-0.2c0,0,0-0.1,0-0.4l-0.2-2.6
		c0-0.3,0-0.3,0-0.4c0-0.1,0.1-0.1,0.1-0.1c0.1,0,0.1,0,0.2,0c0.1,0,0.2,0.1,0.3,0.1c0,0.1,0.1,0.1,0.1,0.2c0,0,0,0.2,0,0.3l0.1,2.6
		C65.3,107.5,65.3,107.6,65.3,107.6z"/>
	<path class="st0" d="M72.7,107.3c-0.3-0.3-0.5-0.4-0.6-0.5c-0.1-0.1-0.2-0.2-0.2-0.3c0-0.1-0.1-0.2-0.1-0.2c0-0.1,0-0.2,0.1-0.3
		c0.1-0.1,0.2-0.1,0.4-0.1c0.2,0.1,0.4,0.2,0.6,0.5c0.2,0.3,0.3,0.6,0.4,0.9l0.2,0.1V106h-0.1c0,0.2-0.1,0.2-0.1,0.2s0,0-0.1,0
		c0,0-0.1,0-0.2-0.2c-0.1-0.1-0.2-0.2-0.3-0.2c-0.1-0.1-0.2-0.1-0.3-0.1c-0.3-0.1-0.6,0-0.8,0.2c-0.2,0.2-0.3,0.4-0.3,0.8
		c0,0.2,0.1,0.4,0.1,0.6c0.1,0.2,0.2,0.4,0.3,0.5c0.1,0.2,0.4,0.4,0.7,0.6c0.2,0.2,0.4,0.3,0.5,0.4c0.1,0.1,0.2,0.2,0.2,0.3
		c0.1,0.1,0.1,0.2,0.1,0.3c0,0.2,0,0.3-0.2,0.4c-0.1,0.1-0.2,0.1-0.4,0.1c-0.2-0.1-0.5-0.2-0.7-0.5c-0.2-0.3-0.4-0.6-0.5-1.1
		l-0.2-0.1v1.6h0.2c0-0.1,0.1-0.1,0.1-0.1h0.1c0.1,0,0.1,0.1,0.2,0.1c0.2,0.1,0.3,0.2,0.4,0.2c0.1,0.1,0.2,0.1,0.3,0.1
		s0.2,0.1,0.3,0.1c0.2,0,0.4-0.1,0.6-0.2c0.2-0.2,0.3-0.5,0.3-0.8c0.1-0.5,0-0.7-0.1-1C73.4,107.9,73.2,107.7,72.7,107.3z"/>
</g>
</svg>
