<?xml version="1.0" encoding="utf-8"?>
<!-- Generator: Adobe Illustrator 27.6.1, SVG Export Plug-In . SVG Version: 6.00 Build 0)  -->
<!DOCTYPE svg PUBLIC "-//W3C//DTD SVG 1.1//EN" "http://www.w3.org/Graphics/SVG/1.1/DTD/svg11.dtd" [
	<!ENTITY ns_extend "http://ns.adobe.com/Extensibility/1.0/">
	<!ENTITY ns_ai "http://ns.adobe.com/AdobeIllustrator/10.0/">
	<!ENTITY ns_graphs "http://ns.adobe.com/Graphs/1.0/">
	<!ENTITY ns_vars "http://ns.adobe.com/Variables/1.0/">
	<!ENTITY ns_imrep "http://ns.adobe.com/ImageReplacement/1.0/">
	<!ENTITY ns_sfw "http://ns.adobe.com/SaveForWeb/1.0/">
	<!ENTITY ns_custom "http://ns.adobe.com/GenericCustomNamespace/1.0/">
	<!ENTITY ns_adobe_xpath "http://ns.adobe.com/XPath/1.0/">
]>
<svg version="1.1" id="Warstwa_1" xmlns:x="&ns_extend;" xmlns:i="&ns_ai;" xmlns:graph="&ns_graphs;"
	 xmlns="http://www.w3.org/2000/svg" xmlns:xlink="http://www.w3.org/1999/xlink" x="0px" y="0px" viewBox="0 0 286.9 164.6"
	 style="enable-background:new 0 0 286.9 164.6;" xml:space="preserve">
<style type="text/css">
	.st0{fill:#5D5D5D;}
	.st1{fill:#B90738;}
	.st2{fill:#003865;}
	.st3{clip-path:url(#SVGID_00000039104574212132898900000015505328248232583045_);fill:#003865;}
	.st4{clip-path:url(#SVGID_00000154399159398038325810000013230455722490359225_);fill:#003865;}
	.st5{clip-path:url(#SVGID_00000162344443437092891040000008000783001966693047_);fill:#003865;}
	.st6{clip-path:url(#SVGID_00000132778130517627421920000005806075454567522730_);fill:#003865;}
</style>
<metadata>
	<sfw  xmlns="&ns_sfw;">
		<slices></slices>
		<sliceSourceBounds  bottomLeftOrigin="true" height="162.3" width="283.5" x="-33.9" y="-85.1"></sliceSourceBounds>
	</sfw>
</metadata>
<g>
	<path class="st0" d="M83.4,124.1c1,0,1.9-0.3,2.6-1c0.7-0.7,1-1.6,1-2.6c0-1-0.3-1.8-1-2.5c-0.7-0.7-1.6-1-2.6-1
		c-1.1,0-2,0.3-2.6,1c-0.7,0.7-1,1.5-1,2.5c0,1,0.3,1.9,1,2.6C81.5,123.8,82.4,124.1,83.4,124.1z"/>
	<polygon class="st0" points="94.6,132.3 94.6,127.5 70.3,127.5 70.3,132.8 86.7,132.8 70,157.4 70,162.4 95.3,162.4 95.3,157.1 
		77.9,157.1 	"/>
	<path class="st0" d="M119.7,132.6c-3.2,6.6-5,10.6-5.3,11.9l-0.3-0.8c-0.2-0.5-0.7-1.7-1.6-3.7c-0.9-2-2-4.5-3.3-7.4l-2.3-5.1h-7.6
		l11.9,22.2v12.8h6.5v-13l12-22H122L119.7,132.6z"/>
	<path class="st0" d="M143,153.6c-2.1-2.1-3.2-5-3.2-8.7s1.1-6.5,3.2-8.7c2.1-2.2,4.8-3.3,8-3.3c3.2,0,6.1,0.8,8.7,2.3v-6.4
		c-2.1-1.3-5.1-1.9-9-1.9c-5.3,0-9.6,1.7-12.9,5c-3.3,3.3-5,7.6-5,12.9c0,5.4,1.7,9.7,5,13c3.4,3.3,7.7,4.9,12.9,4.9
		c3.9,0,6.9-0.7,9-2.1v-6.5c-2.3,1.7-5.1,2.6-8.4,2.6C147.9,156.8,145.1,155.8,143,153.6z"/>
	<rect x="166.2" y="127.5" class="st0" width="6.5" height="35"/>
	<polygon class="st0" points="187.1,157.1 187.1,147.6 199.6,147.6 199.6,142.3 187.1,142.3 187.1,132.8 201.1,132.8 201.1,127.5 
		180.5,127.5 180.5,162.4 201.3,162.4 201.3,157.1 	"/>
</g>
<rect x="268.8" y="33.5" class="st1" width="15.7" height="15.7"/>
<polygon class="st2" points="66.9,2.2 57.1,35.1 56.9,35.1 46.7,2.2 34.1,2.2 24.5,35.1 24.3,35.1 14.2,2.2 1.5,2.2 17.8,49.1 
	29.9,49.1 39.8,17 40,17 51.2,49.1 62.7,49.1 78.7,2.2 "/>
<g>
	<g>
		<defs>
			<rect id="SVGID_1_" x="1.3" y="0.6" width="283.5" height="49.9"/>
		</defs>
		<clipPath id="SVGID_00000142145300107916883920000006056777689788873888_">
			<use xlink:href="#SVGID_1_"  style="overflow:visible;"/>
		</clipPath>
		<path style="clip-path:url(#SVGID_00000142145300107916883920000006056777689788873888_);fill:#003865;" d="M109.7,37.1
			c-1.9,2.5-4.8,4.2-8.6,4.2c-4.4,0-7.7-1.7-7.7-5.7c0-7.2,8.1-7.5,13.5-7.5h5.3C112.3,31.6,111.7,34.3,109.7,37.1 M104.1,1
			C99,1,91.2,2.6,87.8,4v8.3c3.2-1,9.7-2.6,14.9-2.6c7.1,0,10.5,2.7,10.5,10.9h-6.7c-5.1,0-11.1,0.5-15.8,2.7c-4.7,2.3-8,5.8-8,12.7
			c0,8.9,8,13.9,16.4,14h0.2c5.5,0,11.5-3,14.4-8.1h0.2l-0.1,6.9h10.5V26.8v-6C124.4,6.9,118.5,1,104.1,1L104.1,1z"/>
	</g>
	<g>
		<defs>
			<rect id="SVGID_00000093894464217769361210000000177074401076597146_" x="1.3" y="0.6" width="283.5" height="49.9"/>
		</defs>
		<clipPath id="SVGID_00000020373975026790978980000004919192863046052522_">
			<use xlink:href="#SVGID_00000093894464217769361210000000177074401076597146_"  style="overflow:visible;"/>
		</clipPath>
		<path style="clip-path:url(#SVGID_00000020373975026790978980000004919192863046052522_);fill:#003865;" d="M244.7,37.1
			c-1.9,2.5-4.8,4.2-8.6,4.2c-4.4,0-7.7-1.7-7.7-5.7c0-7.2,8.1-7.5,13.5-7.5h5.3C247.2,31.6,246.7,34.3,244.7,37.1 M238,1
			c-5.1,0-12.9,1.6-16.3,3.1v8.3c3.2-1,9.7-2.6,14.9-2.6c7.1,0,10.5,2.7,10.5,10.9h-6.7c-5.1,0-11.1,0.5-15.8,2.7
			c-4.7,2.3-8,5.8-8,12.7c0,8.9,8,13.9,16.4,14h0.2c5.5,0,11.5-3,14.4-8.1h0.2l-0.1,6.9h10.5V26.8v-6C258.3,6.9,252.5,1,238,1L238,1
			z"/>
	</g>
	<g>
		<defs>
			<rect id="SVGID_00000173137939215207208420000009717090208319536279_" x="1.3" y="0.6" width="283.5" height="49.9"/>
		</defs>
		<clipPath id="SVGID_00000040550262412742873580000011757730812082246067_">
			<use xlink:href="#SVGID_00000173137939215207208420000009717090208319536279_"  style="overflow:visible;"/>
		</clipPath>
		<path style="clip-path:url(#SVGID_00000040550262412742873580000011757730812082246067_);fill:#003865;" d="M206.6,11.8V2.2h-34.4
			v9.5h9.1v23.3c0,9.4,4.7,14.7,14.4,14.7c3.6,0,8.2-0.7,12.3-2.1l-0.1-8.5c-1.7,0.6-5,1.4-8.7,1.4c-5.7,0-5.6-3.6-5.6-8.2V11.8
			H206.6z"/>
	</g>
	<g>
		<defs>
			<rect id="SVGID_00000083784952539418427920000005358470813599221133_" x="1.3" y="0.6" width="283.5" height="49.9"/>
		</defs>
		<clipPath id="SVGID_00000054231794263629607420000008163807954438397085_">
			<use xlink:href="#SVGID_00000083784952539418427920000005358470813599221133_"  style="overflow:visible;"/>
		</clipPath>
		<path style="clip-path:url(#SVGID_00000054231794263629607420000008163807954438397085_);fill:#003865;" d="M165.7,1.3
			c-0.9-0.2-1.8-0.4-2.8-0.4c-6.2,0-11.4,3.2-13.9,8.6h-0.2V2.2H137v46.9h11.7V24c0-2.5,1.5-11.8,12.6-11.8c1.4,0,2.8,0.2,4.3,0.5
			L165.7,1.3L165.7,1.3z"/>
	</g>
</g>
</svg>
